<svg t="1788366538691" class="icon" viewBox="0 0 1024 1024" version="1.1" xmlns="http://www.w3.org/2000/svg" p-id="9095" width="200" height="200"><path d="M809.910857 672.036571h-55.734857v54.272h55.734857v-54.272zM353.426286 407.844571H297.691429v52.736h55.734857v-52.736zM353.426286 487.131429H297.691429v52.736h55.734857V487.131429zM353.426286 566.345143H297.691429v52.809143h55.734857v-52.809143zM353.426286 645.632H297.691429v40.96l-25.161143 25.161143 41.472 39.497143 23.405714-23.478857h42.422857v-55.734858h-26.331428v-26.404571zM462.043429 672.036571h-55.734858v55.734858h55.734858v-55.734858zM544.256 672.036571h-55.734857v55.734858h55.734857v-55.734858zM626.468571 672.036571h-55.734857v55.734858h55.734857v-55.734858zM294.838857 770.340571L255.268571 730.697143l-39.862857 37.814857 39.570286 41.545143 39.862857-39.789714zM236.032 829.147429l-39.643429-41.545143-38.034285 40.082285 39.497143 39.570286 38.180571-38.034286z" p-id="9096" fill="#ffffff"></path><path d="M958.171429 721.92V65.828571L300.544 67.291429 65.755429 302.08v656.091429h657.700571L958.171429 721.92z m-230.473143 155.428571l-1.462857-538.477714 176.201142-177.517714v510.683428h-66.048v54.272h41.106286L727.771429 877.348571z m-606.134857-13.165714V355.035429H297.691429v26.331428h55.734857v-26.331428h317.074285v317.074285h-17.554285v55.734857h19.017143l-1.389715 176.128H161.28l17.554286-17.554285-39.643429-39.789715-17.627428 17.700572z" p-id="9097" fill="#ffffff"></path></svg>
